#!OML:ASF F:\VICON\USERDATA\INSTALL\rory3\rory3.ASF
:FULLY-SPECIFIED
:DEGREES
3178
root -1.23601 17.4865 2.58836 11.9054 -25.8462 6.32597
lowerback 7.33128 -6.00355 -1.98747
upperback 3.78804 -8.20307 9.0954
thorax 1.56026 -4.39916 11.224
lowerneck -24.3487 6.43835 -4.19514
upperneck 9.74194 9.47566 2.73155
head 6.50186 4.6563 2.68333
rclavicle -6.20208e-014 9.54166e-015
rhumerus 7.89487 19.1673 -41.797
rradius 74.9519
rwrist 26.7045
rhand -33.234 -7.85467
rfingers 7.12502
rthumb -6.44012 -37.7368
lclavicle -6.20208e-014 9.54166e-015
lhumerus 37.9016 -45.8119 71.4254
lradius 53.1037
lwrist -1.91425
lhand -13.4521 32.9288
lfingers 7.12502
lthumb 12.6574 422.525
rfemur -40.0663 8.3576 4.20572
rtibia 40.6816
rfoot -8.49255 9.14413
rtoes 11.7171
lfemur -14.3992 13.6098 -19.7886
ltibia 23.0484
lfoot -12.4079 25.6276
ltoes -17.8042
3179
root -1.23537 17.49 2.58071 11.8707 -25.4167 6.09181
lowerback 7.26453 -5.71128 -1.69588
upperback 3.90662 -7.79536 8.9213
thorax 1.56551 -4.17931 10.8355
lowerneck -24.4138 6.70826 -3.64694
upperneck 8.70497 9.66923 2.55352
head 6.19841 4.77168 2.53254
rclavicle 4.77083e-014 2.22639e-014
rhumerus 7.13763 18.3994 -42.4021
rradius 75.1107
rwrist 27.4609
rhand -33.1445 -6.79747
rfingers 7.12502
rthumb -6.35367 -36.6822
lclavicle 4.77083e-014 2.22639e-014
lhumerus 36.2561 -45.978 72.713
lradius 53.8278
lwrist -0.398935
lhand -11.6281 32.6144
lfingers 7.12502
lthumb 14.4153 422.094
rfemur -39.7448 8.1823 4.517
rtibia 40.5405
rfoot -8.49858 9.01575
rtoes 12.0065
lfemur -14.3977 13.5295 -19.4679
ltibia 23.1727
lfoot -12.3133 25.4002
ltoes -18.1859
3180
root -1.23161 17.4935 2.57531 11.8915 -25.0054 6.01524
lowerback 6.92753 -5.5519 -1.60841
upperback 4.03492 -7.59358 8.81116
thorax 1.81666 -4.08079 10.6083
lowerneck -24.3402 6.97375 -3.65547
upperneck 7.55249 9.98846 2.63613
head 5.79381 4.95418 2.55099
rclavicle -6.36111e-015 -6.36111e-015
rhumerus 6.69847 17.925 -42.7381
rradius 75.5655
rwrist 27.9992
rhand -33.5487 -5.84955
rfingers 7.12502
rthumb -6.74395 -35.7222
lclavicle -6.36111e-015 -6.36111e-015
lhumerus 34.5283 -45.8129 73.9254
lradius 54.6967
lwrist 1.37096
lhand -10.6335 32.8219
lfingers 7.12502
lthumb 15.3735 422.23
rfemur -39.5388 7.89354 4.66748
rtibia 40.4309
rfoot -8.58652 8.89501
rtoes 11.1402
lfemur -14.5142 13.3741 -19.3481
ltibia 23.2831
lfoot -12.3062 25.2153
ltoes -18.3964
3181
root -1.22616 17.495 2.56806 11.8457 -24.5803 5.87802
lowerback 6.885 -5.4918 -1.5273
upperback 4.05822 -7.5104 8.82239
thorax 1.83877 -4.03736 10.5661
lowerneck -24.4574 7.274 -3.92126
upperneck 6.75054 10.4356 2.78321
head 5.51132 5.19049 2.65833
rclavicle 1.43125e-014 -3.02153e-014
rhumerus 6.36387 17.8757 -42.8011
rradius 76.273
rwrist 28.6228
rhand -34.4004 -5.74368
rfingers 7.12502
rthumb -7.56605 -35.5884
lclavicle 1.43125e-014 -3.02153e-014
lhumerus 32.3868 -45.2943 75.487
lradius 55.4983
lwrist 2.86283
lhand -10.0306 33.0344
lfingers 7.12502
lthumb 15.9542 422.397
rfemur -39.2499 7.61667 4.91173
rtibia 40.3651
rfoot -8.78221 8.75306
rtoes 9.97892
lfemur -14.5336 13.1916 -19.1447
ltibia 23.3532
lfoot -12.1691 25.0357
ltoes -18.8497
3182
root -1.22327 17.4968 2.55811 11.7095 -24.2397 5.8608
lowerback 7.02132 -5.3717 -1.73925
upperback 4.00258 -7.35486 8.9117
thorax 1.71589 -3.96211 10.8065
lowerneck -24.3359 7.54002 -4.19051
upperneck 5.80916 10.8569 2.72583
head 5.16116 5.40093 2.68175
rclavicle -8.11041e-014 1.11319e-014
rhumerus 6.16054 17.9066 -42.68
rradius 76.8281
rwrist 29.1909
rhand -35.2934 -5.68009
rfingers 7.12502
rthumb -8.42793 -35.4919
lclavicle -8.11041e-014 1.11319e-014
lhumerus 30.1135 -44.6119 77.3891
lradius 56.0467
lwrist 3.86897
lhand -9.2904 32.8713
lfingers 7.12502
lthumb 16.6669 422.176
rfemur -38.9758 7.48797 4.9912
rtibia 40.3194
rfoot -8.91146 8.62069
rtoes 9.00029
lfemur -14.4899 13.0815 -19.0481
ltibia 23.4082
lfoot -12.0924 24.8114
ltoes -18.757
3183
root -1.21635 17.4993 2.5514 11.6107 -23.8707 5.81163
lowerback 7.0311 -5.23597 -1.82919
upperback 3.99187 -7.17701 8.94548
thorax 1.67974 -3.87344 10.8956
lowerneck -24.2229 7.7781 -4.25963
upperneck 4.88629 11.1902 2.56864
head 4.83952 5.56576 2.6359
rclavicle -1.19271e-013 8.74653e-014
rhumerus 6.00786 17.828 -42.6332
rradius 77.2625
rwrist 29.4895
rhand -36.279 -5.39253
rfingers 7.12502
rthumb -9.37906 -35.1639
lclavicle -1.19271e-013 8.74653e-014
lhumerus 28.1802 -44.0328 78.9074
lradius 56.505
lwrist 4.76315
lhand -8.7619 32.7702
lfingers 7.12502
lthumb 17.1756 422.031
rfemur -38.7113 7.29719 5.08819
rtibia 40.2492
rfoot -8.97335 8.51673
rtoes 8.76977
lfemur -14.4805 12.8438 -18.9344
ltibia 23.505
lfoot -12.1407 24.7359
ltoes -18.8106
3184
root -1.20795 17.5032 2.54476 11.6192 -23.3094 5.72651
lowerback 7.11688 -5.11194 -1.57538
upperback 3.85016 -6.9738 8.82245
thorax 1.38913 -3.74248 10.6218
lowerneck -24.3133 7.93736 -4.00947
upperneck 4.21863 11.3287 2.43223
head 4.65409 5.63746 2.55022
rclavicle 7.95139e-015 5.56597e-014
rhumerus 5.47173 17.5877 -42.9494
rradius 77.742
rwrist 29.9011
rhand -36.9812 -5.01846
rfingers 7.12502
rthumb -10.0565 -34.7582
lclavicle 7.95139e-015 5.56597e-014
lhumerus 26.2202 -43.8501 80.1103
lradius 57.0199
lwrist 5.47429
lhand -8.38012 32.5939
lfingers 7.12502
lthumb 17.5431 421.822
rfemur -38.4766 7.01558 5.22784
rtibia 40.1703
rfoot -9.14859 8.25311
rtoes 8.13244
lfemur -14.633 12.5274 -18.7878
ltibia 23.6164
lfoot -12.0026 24.6324
ltoes -19.1572
3185
root -1.2006 17.5038 2.53433 11.6235 -22.724 5.52245
lowerback 7.31702 -4.90464 -1.42557
upperback 3.70411 -6.6649 8.84584
thorax 1.04718 -3.56564 10.5821
lowerneck -24.42 7.99123 -3.89171
upperneck 3.55088 11.3706 2.26723
head 4.46998 5.65648 2.46698
rclavicle 1.59028e-014 7.95139e-015
rhumerus 4.95562 17.2031 -43.022
rradius 78.241
rwrist 30.4611
rhand -37.655 -4.92488
rfingers 7.12502
rthumb -10.7065 -34.6321
lclavicle 1.59028e-014 7.95139e-015
lhumerus 24.3636 -43.8014 81.3443
lradius 57.5655
lwrist 6.20435
lhand -8.42463 32.5159
lfingers 7.12502
lthumb 17.5002 421.748
rfemur -38.1998 6.78193 5.49742
rtibia 40.0812
rfoot -9.29367 7.96591
rtoes 7.74698
lfemur -14.7654 12.1904 -18.4834
ltibia 23.7622
lfoot -11.93 24.4755
ltoes -19.4171
3186
root -1.19436 17.5027 2.52327 11.5519 -22.3444 5.35289
lowerback 7.22705 -4.70811 -1.30154
upperback 3.78219 -6.39946 8.75985
thorax 1.10098 -3.4282 10.3906
lowerneck -24.2589 8.07207 -3.76602
upperneck 2.52364 11.4378 2.05802
head 4.13644 5.69145 2.34778
rclavicle -2.70347e-014 -3.49861e-014
rhumerus 4.82388 16.6948 -43.1965
rradius 78.6252
rwrist 30.9559
rhand -38.2362 -4.56489
rfingers 7.12502
rthumb -11.2671 -34.2423
lclavicle -2.70347e-014 -3.49861e-014
lhumerus 22.9127 -43.6687 81.9381
lradius 58.1474
lwrist 6.93439
lhand -8.74431 32.6012
lfingers 7.12502
lthumb 17.1926 421.861
rfemur -37.9429 6.6814 5.70038
rtibia 40.0016
rfoot -9.36341 7.79885
rtoes 7.58414
lfemur -14.8032 12.1042 -18.2365
ltibia 23.8931
lfoot -11.8603 24.2194
ltoes -19.7704
3187
root -1.18744 17.5022 2.5149 11.5148 -21.9184 5.24126
lowerback 7.14889 -4.60555 -1.2582
upperback 3.77735 -6.25978 8.73085
thorax 1.10332 -3.35433 10.3202
lowerneck -23.9453 8.22271 -3.71676
upperneck 1.44619 11.6204 1.77511
head 3.76396 5.77883 2.21947
rclavicle 9.22361e-014 -1.17681e-013
rhumerus 4.88293 16.4026 -43.2707
rradius 79.0343
rwrist 31.284
rhand -38.6521 -4.15151
rfingers 7.12502
rthumb -11.6682 -33.8066
lclavicle 9.22361e-014 -1.17681e-013
lhumerus 21.2192 -43.2061 82.7305
lradius 58.6625
lwrist 7.32598
lhand -9.11933 32.69
lfingers 7.12502
lthumb 16.8316 421.981
rfemur -37.7286 6.49023 5.84697
rtibia 39.9283
rfoot -9.43411 7.63425
rtoes 7.27122
lfemur -14.8953 12.0632 -18.0699
ltibia 24.0064
lfoot -11.8577 23.8904
ltoes -19.8571
3188
root -1.18224 17.5063 2.51033 11.4308 -21.3953 5.27039
lowerback 7.10993 -4.45333 -1.28965
upperback 3.71597 -6.05095 8.65992
thorax 1.01456 -3.24088 10.2512
lowerneck -24.0981 8.29307 -3.66484
upperneck 0.918557 11.7004 1.64585
head 3.62586 5.81631 2.16802
rclavicle -3.02153e-014 1.11319e-014
rhumerus 4.81466 15.9075 -43.3004
rradius 79.3637
rwrist 31.5259
rhand -39.0467 -3.56299
rfingers 7.12502
rthumb -12.0487 -33.1961
lclavicle -3.02153e-014 1.11319e-014
lhumerus 19.54 -42.9545 83.5576
lradius 59.1244
lwrist 7.56125
lhand -9.36905 32.6527
lfingers 7.12502
lthumb 16.5912 421.964
rfemur -37.445 6.16498 5.87334
rtibia 39.8614
rfoot -9.49697 7.52533
rtoes 7.38798
lfemur -14.9498 11.8117 -18.0367
ltibia 24.0766
lfoot -11.8128 23.6652
ltoes -20.128
3189
root -1.17551 17.5111 2.50711 11.3638 -20.8774 5.26809
lowerback 7.04744 -4.25689 -1.26335
upperback 3.64765 -5.77958 8.58277
thorax 0.913309 -3.09364 10.1369
lowerneck -24.478 8.25966 -3.52753
upperneck 0.648788 11.6329 1.45239
head 3.61388 5.77197 2.09085
rclavicle 7.95139e-015 3.18055e-015
rhumerus 4.69836 15.3222 -43.3356
rradius 79.7225
rwrist 31.5579
rhand -39.5944 -3.3589
rfingers 7.12502
rthumb -12.5768 -32.9603
lclavicle 7.95139e-015 3.18055e-015
lhumerus 18.005 -42.9336 84.2192
lradius 59.5433
lwrist 7.94581
lhand -9.70153 32.5682
lfingers 7.12502
lthumb 16.271 421.905
rfemur -37.155 5.8331 5.92807
rtibia 39.7861
rfoot -9.58411 7.41444
rtoes 7.19143
lfemur -15.0061 11.5945 -17.9786
ltibia 24.1376
lfoot -11.7817 23.382
ltoes -20.2713
3190
root -1.16784 17.513 2.50371 11.292 -20.3629 5.15794
lowerback 7.00485 -4.11772 -1.15789
upperback 3.58671 -5.5812 8.5611
thorax 0.822083 -2.98443 10.0422
lowerneck -24.6411 8.22799 -3.53051
upperneck 0.208893 11.6024 1.23204
head 3.51096 5.74731 2.01379
rclavicle -3.33958e-014 8.74653e-014
rhumerus 4.76052 14.8142 -43.3468
rradius 80.14
rwrist 31.5456
rhand -40.6209 -3.48914
rfingers 7.12502
rthumb -13.5663 -33.0272
lclavicle -3.33958e-014 8.74653e-014
lhumerus 16.3271 -42.6093 85.0517
lradius 59.9193
lwrist 8.4062
lhand -10.2008 32.5649
lfingers 7.12502
lthumb 15.7903 421.941
rfemur -36.8324 5.52311 6.0977
rtibia 39.7064
rfoot -9.64437 7.3225
rtoes 7.06137
lfemur -15.023 11.3807 -17.7966
ltibia 24.1997
lfoot -11.7443 23.1109
ltoes -20.4391
